<?xml version="1.0" encoding="UTF-8" standalone="no"?>
<svg
   xmlns:dc="http://purl.org/dc/elements/1.1/"
   xmlns:cc="http://creativecommons.org/ns#"
   xmlns:rdf="http://www.w3.org/1999/02/22-rdf-syntax-ns#"
   xmlns:svg="http://www.w3.org/2000/svg"
   xmlns="http://www.w3.org/2000/svg"
   xmlns:sodipodi="http://sodipodi.sourceforge.net/DTD/sodipodi-0.dtd"
   xmlns:inkscape="http://www.inkscape.org/namespaces/inkscape"
   width="39.768353mm"
   height="9.508482mm"
   viewBox="0 0 39.768353 9.5084819"
   version="1.1"
   id="svg8"
   inkscape:version="1.0.1 (c497b03c, 2020-09-10)"
   sodipodi:docname="Answering.svg">
  <defs
     id="defs2" />
  <sodipodi:namedview
     id="base"
     pagecolor="#ffffff"
     bordercolor="#666666"
     borderopacity="1.0"
     inkscape:pageopacity="0.0"
     inkscape:pageshadow="2"
     inkscape:zoom="0.35"
     inkscape:cx="183.86845"
     inkscape:cy="481.86941"
     inkscape:document-units="mm"
     inkscape:current-layer="g856"
     inkscape:document-rotation="0"
     showgrid="false"
     inkscape:window-width="1252"
     inkscape:window-height="943"
     inkscape:window-x="32"
     inkscape:window-y="25"
     inkscape:window-maximized="0" />
  <metadata
     id="metadata5">
    <rdf:RDF>
      <cc:Work
         rdf:about="">
        <dc:format>image/svg+xml</dc:format>
        <dc:type
           rdf:resource="http://purl.org/dc/dcmitype/StillImage" />
        <dc:title></dc:title>
      </cc:Work>
    </rdf:RDF>
  </metadata>
  <g
     inkscape:label="Layer 1"
     inkscape:groupmode="layer"
     id="layer1"
     transform="translate(-21.655043,-20.672052)">
    <g
       style="fill:none;stroke:none;stroke-linecap:square;stroke-miterlimit:10"
       id="g856"
       transform="matrix(0.28033234,0,0,0.37797619,-44.601189,-45.357142)">
      <g
         clip-path="url(#p.0)"
         id="g842">
        <path
           fill="#000000"
           fill-opacity="0"
           d="M 0,0 H 960 V 720 H 0 Z"
           fill-rule="evenodd"
           id="path836" />
        <path
           fill="#000000"
           fill-opacity="0"
           d="m 226.9895,159.70079 h 335.55908 v 51.71654 H 226.9895 Z"
           fill-rule="evenodd"
           id="path838" />
        <path
           fill="#0000ff"
           d="m 247.02075,190.34766 1.09375,3.95312 h 3.85937 l -6.09375,-18.95312 h -3.3125 l -6.21875,18.95312 h 3.85938 l 1.125,-3.95312 z m -4.79688,-3.10938 1.98438,-6.98437 1.95312,6.98437 z m 11.59011,7.0625 h 3.64061 v -10.01562 q 0.1875,-0.28125 0.40625,-0.51563 0.21875,-0.23437 0.48437,-0.40625 0.34375,-0.23437 0.78125,-0.34375 0.4375,-0.125 0.95313,-0.125 0.625,0 1.10937,0.125 0.5,0.125 0.85938,0.4375 0.34375,0.3125 0.53125,0.85938 0.20312,0.53125 0.20312,1.375 v 8.60937 h 3.60938 v -8.67187 q 0,-1.53125 -0.35938,-2.60938 -0.35937,-1.07812 -0.98437,-1.76562 -0.65625,-0.67188 -1.54688,-0.98438 -0.875,-0.3125 -1.95312,-0.3125 -0.82813,0 -1.57813,0.23438 -0.73437,0.23437 -1.35937,0.67187 -0.35938,0.26563 -0.6875,0.59375 -0.32813,0.32813 -0.59375,0.71875 l -0.23438,-1.95312 h -3.28123 z m 25.0901,-3.85937 q 0,0.3125 -0.17187,0.59375 -0.15625,0.26562 -0.48438,0.48437 -0.32812,0.20313 -0.85937,0.32813 -0.53125,0.125 -1.23438,0.125 -0.57812,0 -1.14062,-0.10938 -0.54688,-0.125 -0.98438,-0.39062 -0.42187,-0.25 -0.70312,-0.65625 -0.26563,-0.40625 -0.3125,-0.98438 h -3.4375 q 0,0.85938 0.42187,1.71875 0.42188,0.84375 1.23438,1.51563 0.82812,0.67187 2.04687,1.09375 1.21875,0.40625 2.79688,0.40625 1.45312,0 2.625,-0.3125 1.17187,-0.3125 2,-0.89063 0.8125,-0.57812 1.26562,-1.35937 0.45313,-0.78125 0.45313,-1.71875 0,-1.01563 -0.45313,-1.75 -0.45312,-0.75 -1.23437,-1.26563 -0.79688,-0.5 -1.89063,-0.82812 -1.09375,-0.32813 -2.375,-0.53125 -0.89062,-0.14063 -1.46875,-0.3125 -0.5625,-0.17188 -0.89062,-0.39063 -0.32813,-0.21875 -0.46875,-0.48437 -0.125,-0.26563 -0.125,-0.57813 0,-0.3125 0.14062,-0.59375 0.15625,-0.28125 0.45313,-0.48437 0.3125,-0.23438 0.79687,-0.35938 0.5,-0.14062 1.15625,-0.14062 0.78125,0 1.32813,0.20312 0.5625,0.1875 0.89062,0.51563 0.23438,0.25 0.34375,0.5625 0.125,0.29687 0.125,0.65625 h 3.60938 q 0,-0.98438 -0.4375,-1.8125 -0.42188,-0.82813 -1.21875,-1.45313 -0.82813,-0.59375 -2,-0.9375 -1.17188,-0.34375 -2.64063,-0.34375 -1.40625,0 -2.53125,0.35938 -1.10937,0.34375 -1.89062,0.9375 -0.78125,0.60937 -1.20313,1.40625 -0.40625,0.78125 -0.40625,1.65625 0,0.90625 0.40625,1.59375 0.40625,0.6875 1.14063,1.20312 0.73437,0.53125 1.75,0.90625 1.01562,0.375 2.25,0.625 0.98437,0.17188 1.625,0.35938 0.64062,0.1875 1.03125,0.39062 0.375,0.21875 0.51562,0.46875 0.15625,0.25 0.15625,0.57813 z m 7.94946,3.85937 h 3.17188 l 1.5,-7.51562 0.28125,-1.4375 0.3125,1.4375 1.54687,7.51562 h 3.17188 l 2.53125,-14.07812 h -3.32813 l -1.03125,8.29687 -0.1875,1.375 -0.25,-1.34375 -1.51562,-8.32812 h -2.42188 l -1.53125,8.35937 -0.25,1.34375 -0.15625,-1.34375 -1.0625,-8.35937 h -3.3125 z m 21.79325,0.26563 q 2.04687,0 3.53125,-0.79688 1.5,-0.79687 2.1875,-1.76562 l -1.79688,-1.95313 q -0.625,0.79688 -1.64062,1.20313 -1,0.40625 -2.0625,0.40625 -0.75,0 -1.39063,-0.23438 -0.64062,-0.23437 -1.14062,-0.67187 -0.46875,-0.40625 -0.76563,-0.92188 -0.28125,-0.51562 -0.46875,-1.35937 v -0.0469 h 9.5625 v -1.53125 q 0,-1.54687 -0.4375,-2.82812 -0.42187,-1.28125 -1.25,-2.20313 -0.82812,-0.90625 -2.03125,-1.40625 -1.1875,-0.5 -2.70312,-0.5 -1.46875,0 -2.71875,0.53125 -1.25,0.53125 -2.15625,1.5 -0.92188,0.96875 -1.4375,2.29688 -0.5,1.32812 -0.5,2.95312 v 0.51563 q 0,1.42187 0.51562,2.67187 0.51563,1.23438 1.46875,2.14063 0.95313,0.92187 2.28125,1.46875 1.32813,0.53125 2.95313,0.53125 z m -0.4375,-11.6875 q 0.6875,0 1.21875,0.21875 0.53125,0.21875 0.89062,0.57812 0.375,0.375 0.57813,0.89063 0.20312,0.5 0.20312,1.07812 v 0.28125 h -5.9375 q 0.14063,-0.6875 0.39063,-1.23437 0.26562,-0.5625 0.65625,-0.96875 0.375,-0.40625 0.875,-0.625 0.51562,-0.21875 1.125,-0.21875 z m 19.71508,-2.92188 q -1.42187,0 -2.625,0.6875 -1.1875,0.67188 -2.04687,1.875 l -0.0312,-0.3125 -0.14063,-1.98437 h -3.375 v 14.07812 h 3.625 v -8.45312 q 0.23438,-0.60938 0.60938,-1.04688 0.39062,-0.4375 0.92187,-0.73437 0.4375,-0.25 1,-0.35938 0.57813,-0.125 1.28125,-0.125 0.67188,0 1.42188,0.0781 0.75,0.0781 1.46875,0.25 l 0.53125,-3.59375 q -0.4375,-0.14063 -1.14063,-0.25 -0.6875,-0.10938 -1.5,-0.10938 z m 6.84012,0.26563 v 2.95312 h 4.01563 v 8.1875 h -4.01563 v 2.9375 h 11.48438 v -2.9375 h -3.8125 v -11.14062 z m 3.75,-3.60938 q 0,0.42188 0.14063,0.78125 0.15625,0.34375 0.4375,0.59375 0.26562,0.26563 0.64062,0.40625 0.39063,0.14063 0.85938,0.14063 0.96875,0 1.53125,-0.53125 0.5625,-0.54688 0.5625,-1.39063 0,-0.84375 -0.5625,-1.375 -0.5625,-0.54687 -1.53125,-0.54687 -0.46875,0 -0.85938,0.14062 -0.375,0.14063 -0.64062,0.39063 -0.28125,0.25 -0.4375,0.60937 -0.14063,0.35938 -0.14063,0.78125 z m 11.27759,17.6875 h 3.64063 v -10.01562 q 0.1875,-0.28125 0.40625,-0.51563 0.21875,-0.23437 0.48437,-0.40625 0.34375,-0.23437 0.78125,-0.34375 0.4375,-0.125 0.95313,-0.125 0.625,0 1.10937,0.125 0.5,0.125 0.85938,0.4375 0.34375,0.3125 0.53125,0.85938 0.20312,0.53125 0.20312,1.375 v 8.60937 h 3.60938 v -8.67187 q 0,-1.53125 -0.35938,-2.60938 -0.35937,-1.07812 -0.98437,-1.76562 -0.65625,-0.67188 -1.54688,-0.98438 -0.875,-0.3125 -1.95312,-0.3125 -0.82813,0 -1.57813,0.23438 -0.73437,0.23437 -1.35937,0.67187 -0.35938,0.26563 -0.6875,0.59375 -0.32813,0.32813 -0.59375,0.71875 l -0.23438,-1.95312 h -3.28125 z m 15.63699,-7.14062 v 0.26562 q 0,1.53125 0.39063,2.84375 0.40625,1.3125 1.14062,2.26563 0.75,0.95312 1.79688,1.5 1.04687,0.53125 2.35937,0.53125 0.67188,0 1.25,-0.15625 0.57813,-0.14063 1.0625,-0.39063 0.3125,-0.1875 0.59375,-0.42187 0.29688,-0.23438 0.5625,-0.51563 v 0.79688 q 0,0.71875 -0.20312,1.28125 -0.20313,0.57812 -0.57813,0.96875 -0.42187,0.4375 -1.04687,0.65625 -0.60938,0.21875 -1.40625,0.21875 -0.5,0 -0.96875,-0.0937 -0.45313,-0.0937 -0.875,-0.29688 -0.4375,-0.1875 -0.84375,-0.5 -0.40625,-0.29687 -0.76563,-0.70312 l -1.625,2.20312 q 0.45313,0.57813 1.09375,1 0.64063,0.42188 1.35938,0.70313 0.71875,0.26562 1.4375,0.39062 0.73437,0.14063 1.375,0.14063 1.48437,0 2.70312,-0.40625 1.23438,-0.39063 2.125,-1.15625 0.875,-0.76563 1.35938,-1.89063 0.48437,-1.125 0.48437,-2.54687 v -13.625 h -3.29687 l -0.14063,1.32812 q -0.25,-0.3125 -0.5625,-0.57812 -0.3125,-0.26563 -0.6875,-0.46875 -0.48437,-0.26563 -1.07812,-0.40625 -0.57813,-0.14063 -1.29688,-0.14063 -1.32812,0 -2.39062,0.53125 -1.04688,0.51563 -1.79688,1.45313 -0.73437,0.95312 -1.14062,2.28125 -0.39063,1.32812 -0.39063,2.9375 z m 3.64063,0.26562 v -0.26562 q 0,-0.89063 0.17187,-1.65625 0.1875,-0.78125 0.5625,-1.375 0.35938,-0.5625 0.92188,-0.89063 0.5625,-0.34375 1.32812,-0.34375 0.42188,0 0.78125,0.0781 0.35938,0.0781 0.65625,0.21875 0.34375,0.17187 0.60938,0.45312 0.28125,0.26563 0.48437,0.64063 v 5.95312 q -0.1875,0.32813 -0.4375,0.59375 -0.25,0.25 -0.5625,0.4375 -0.3125,0.17188 -0.70312,0.26563 -0.39063,0.0781 -0.85938,0.0781 -0.76562,0 -1.32812,-0.3125 -0.54688,-0.32812 -0.92188,-0.90625 -0.35937,-0.5625 -0.53125,-1.3125 -0.17187,-0.76562 -0.17187,-1.65625 z"
           fill-rule="nonzero"
           id="path840" />
      </g>
    </g>
  </g>
</svg>
